<?xml version="1.0" encoding="utf-8"?>
<!-- Generator: Adobe Illustrator 27.8.0, SVG Export Plug-In . SVG Version: 6.00 Build 0)  -->
<svg version="1.1" id="uuid-3bf0b73e-985f-46e9-ad1e-509cfc6c5335"
	 xmlns="http://www.w3.org/2000/svg" xmlns:xlink="http://www.w3.org/1999/xlink" x="0px" y="0px" viewBox="0 0 751.5 259.2"
	 style="enable-background:new 0 0 751.5 259.2;" xml:space="preserve">
<style type="text/css">
	.st0{fill:#0A0B0B;}
	.st1{fill:#FFFFFF;}
</style>
<path class="st0" d="M97.8,7.7C43.8,7.7,0,51.4,0,105.4v153.7h153.7c54,0,97.8-43.8,97.8-97.8V7.7H97.8L97.8,7.7z M203.5,161
	c0,13-4.9,25.9-14.5,35.9c-0.2,0.2-0.4,0.4-0.5,0.5c-10.1,10.1-23.3,15.1-36.5,15.1v-29.2c6,0,11.6-2.3,15.8-6.6
	c4-4,6.3-9.1,6.5-14.7c0-0.4,0-0.8,0-1.1s0-0.8,0-1.1V159c6.3-2.8,12-6.7,16.8-11.5l-2.6-2.6c-4.3,4.3-9.3,7.8-14.8,10.3
	s-11.6,4.2-18,4.6c-0.1-7.9-1.9-15.5-5.2-22.6c-1.1-2.4-2.4-4.7-3.8-6.9c1.7,0.4,3.4,0.6,5.2,0.6c0.2,0,0.3,0,0.5,0
	c4.7-0.1,9.1-1.6,12.8-4.3c0.9-0.7,1.8-1.4,2.6-2.2c0.7-0.7,1.4-1.5,2-2.3c1.9-2.4,3.2-5.1,3.9-8.1c0.4-1.4,0.6-2.9,0.6-4.4
	c0-0.4,0-0.8,0-1.1s0-0.8,0-1.1c-0.3-5.6-2.6-10.8-6.5-14.7c-4.2-4.2-9.9-6.6-15.8-6.6s-11.6,2.3-15.8,6.6
	c-4.2,4.2-6.6,9.9-6.6,15.8c0,1.9,0.2,3.7,0.7,5.5c1,3.9,3,7.4,5.9,10.3c4.4,4.4,7.8,9.4,10.3,14.7c3.1,6.6,4.6,13.8,4.8,21
	c0.1,7.7-1.5,15.4-4.8,22.5c-2.5,5.4-5.9,10.4-10.3,14.8c0,0-0.1,0.1-0.1,0.1c-3.1,3.1-6.6,5.7-10.2,7.9c-8,4.7-17.1,7.1-26.1,7.1
	c-6.6,0-13.3-1.3-19.5-3.8c-0.4-0.2-0.8-0.3-1.2-0.5c-0.4-0.2-0.9-0.4-1.3-0.6c-0.5-0.2-0.9-0.4-1.4-0.7c-0.4-0.2-0.7-0.4-1-0.5
	c-0.2-0.1-0.4-0.2-0.5-0.3c-0.5-0.3-1-0.6-1.5-0.9c-3.7-2.2-7.1-4.9-10.1-7.9l-2.6,2.6c3.7,3.8,8,7,12.7,9.5v3.1H48.1V64.7h29.2
	v45.8c-6.3,2.8-12,6.7-16.8,11.5l2.6,2.6c4.1-4.1,8.9-7.5,14.2-10.1c0,0,0,0,0,0c1.5-0.7,3-1.4,4.5-1.9c1.5-0.6,3-1,4.6-1.4
	c1.6-0.4,3.3-0.8,4.9-1.1c1.5-0.2,3-0.4,4.5-0.5v0.1c0.2,9.7,2.8,19.2,7.7,27.5c0.4,0.7,0.8,1.4,1.3,2.1c-1.7-0.4-3.4-0.6-5.2-0.6
	c-0.2,0-0.3,0-0.5,0c-4.6,0.1-9.1,1.6-12.8,4.3c-0.9,0.7-1.8,1.4-2.6,2.2c-0.7,0.7-1.4,1.5-2,2.3c-2.8,3.6-4.3,7.9-4.6,12.5
	c0,0.4,0,0.7,0,1.1s0,0.7,0,1.1c0.3,5.6,2.6,10.8,6.5,14.7c4.2,4.2,9.9,6.6,15.8,6.6c1.9,0,3.7-0.2,5.5-0.7c3.9-1,7.4-3,10.3-5.9
	c4.2-4.2,6.6-9.9,6.6-15.8s-2.3-11.6-6.6-15.8l-0.1-0.1c-3.1-3.1-5.7-6.6-7.9-10.2c-4.6-7.8-7-16.6-7.1-25.4
	c-0.2-13.4,4.8-27,15.1-37.2l0.1-0.1c10-9.9,23.2-14.9,36.3-14.9c2.2,0,4.4,0.1,6.6,0.4c0.1,0,0.2,0,0.3,0c0.2,0,0.4,0.1,0.5,0.1
	c0.4,0.1,0.8,0.1,1.1,0.2c0.5,0.1,1,0.2,1.4,0.3c4.2,0.8,8.4,2.2,12.4,4.1c1.4,0.7,2.8,1.4,4.1,2.2v-0.1c3.7,2.2,7.1,4.9,10.1,7.9
	l2.6-2.6c-3.7-3.7-8-6.9-12.7-9.5v-1.9h25.1V161L203.5,161z"/>
<path class="st1" d="M203.4,58.3V161c0,13-4.9,25.9-14.5,35.9c-0.2,0.2-0.4,0.4-0.5,0.5c-10.1,10.1-23.3,15.1-36.5,15.1v-29.2
	c6,0,11.6-2.3,15.8-6.6c4-4,6.3-9.1,6.5-14.7c0-0.4,0-0.8,0-1.1s0-0.8,0-1.1V159c6.3-2.8,12-6.7,16.8-11.5l-2.6-2.6
	c-4.3,4.3-9.3,7.8-14.8,10.3s-11.6,4.2-18,4.6c-0.1-7.9-1.9-15.5-5.2-22.6c-1.1-2.4-2.4-4.7-3.8-6.9c1.7,0.4,3.4,0.6,5.2,0.6
	c0.2,0,0.3,0,0.5,0c4.7-0.1,9.1-1.6,12.8-4.3c0.9-0.7,1.8-1.4,2.6-2.2c0.7-0.7,1.4-1.5,2-2.3c1.9-2.4,3.2-5.1,3.9-8.1
	c0.4-1.4,0.6-2.9,0.6-4.4c0-0.4,0-0.8,0-1.1s0-0.8,0-1.1c-0.3-5.6-2.6-10.8-6.5-14.7c-4.2-4.2-9.9-6.6-15.8-6.6s-11.6,2.3-15.8,6.6
	c-4.2,4.2-6.6,9.9-6.6,15.8c0,1.9,0.2,3.7,0.7,5.5c1,3.9,3,7.4,5.9,10.3c4.4,4.4,7.8,9.4,10.3,14.7c3.1,6.6,4.6,13.8,4.8,21
	c0.1,7.7-1.5,15.4-4.8,22.5c-2.5,5.4-5.9,10.4-10.3,14.8c0,0-0.1,0.1-0.1,0.1c-3.1,3.1-6.6,5.7-10.2,7.9c-8,4.7-17.1,7.1-26.1,7.1
	c-6.6,0-13.3-1.3-19.5-3.8c-0.4-0.2-0.8-0.3-1.2-0.5c-0.4-0.2-0.9-0.4-1.3-0.6c-0.5-0.2-0.9-0.4-1.4-0.7c-0.4-0.2-0.7-0.4-1-0.5
	c-0.2-0.1-0.4-0.2-0.5-0.3c-0.5-0.3-1-0.6-1.5-0.9c-3.7-2.2-7.1-4.9-10.1-7.9l-2.6,2.6c3.7,3.8,8,7,12.7,9.5v3.1H48V64.7h29.2v45.8
	c-6.3,2.8-12,6.7-16.8,11.5l2.6,2.6c4.1-4.1,8.9-7.5,14.2-10.1c0,0,0,0,0,0c1.5-0.7,3-1.4,4.5-1.9c1.5-0.6,3-1,4.6-1.4
	c1.6-0.4,3.3-0.8,4.9-1.1c1.5-0.2,3-0.4,4.5-0.5v0.1c0.2,9.7,2.8,19.2,7.7,27.5c0.4,0.7,0.8,1.4,1.3,2c-1.7-0.4-3.4-0.6-5.2-0.6
	c-0.2,0-0.3,0-0.5,0c-4.6,0.1-9.1,1.6-12.8,4.3c-0.9,0.7-1.8,1.4-2.6,2.2c-0.7,0.7-1.4,1.5-2,2.3c-2.8,3.6-4.3,7.9-4.6,12.5
	c0,0.4,0,0.7,0,1.1s0,0.7,0,1.1c0.3,5.6,2.6,10.8,6.5,14.7c4.2,4.2,9.9,6.6,15.8,6.6c1.9,0,3.7-0.2,5.5-0.7c3.9-1,7.4-3,10.3-5.9
	c4.2-4.2,6.6-9.9,6.6-15.8s-2.3-11.6-6.6-15.8l-0.1-0.1c-3.1-3.1-5.7-6.6-7.9-10.2c-4.6-7.8-7-16.6-7.1-25.4
	c-0.2-13.4,4.8-27,15.1-37.2l0.1-0.1c10-9.9,23.2-14.9,36.3-14.9c2.2,0,4.4,0.1,6.6,0.4c0.1,0,0.2,0,0.3,0c0.2,0,0.4,0.1,0.5,0.1
	c0.4,0.1,0.8,0.1,1.1,0.2c0.5,0.1,1,0.2,1.4,0.3c4.2,0.8,8.4,2.2,12.4,4.1c1.4,0.7,2.8,1.4,4.1,2.2v-0.1c3.7,2.2,7.1,4.9,10.1,7.9
	l2.6-2.6c-3.7-3.7-8-6.9-12.7-9.5v-1.9L203.4,58.3L203.4,58.3z"/>
<path class="st0" d="M294.6,112.3V7.7h23.5V40c6.2-6.6,14.1-8.9,22.3-8.9c20.4,0,39,15.3,39,41.4c0,24.2-15.4,42.4-39.6,42.4
	c-9.5,0-19-4.4-22.5-11h-0.3v8.3L294.6,112.3L294.6,112.3z M356,73c0-10.5-8.1-19.9-19.4-19.9s-19.4,8.9-19.4,19.8
	c0,11.6,8.2,20.2,19.1,20.2S356,84.3,356,73L356,73z"/>
<path class="st0" d="M429.1,115c-23.9,0-42.3-17.7-42.3-41.7s18.8-41.7,42.3-41.7c23.5,0,42.3,17.7,42.3,41.4S452.7,115,429.1,115
	L429.1,115z M401.4,21.4V7.9c0-4.3,3.5-7.9,7.9-7.9h14.6v13.5c0,4.3-3.5,7.9-7.9,7.9H401.4L401.4,21.4z M447.9,73.3
	c0-10.5-7.9-19.8-19-19.8c-10.3,0-18.7,9.1-18.7,19.8s8.2,19.8,18.8,19.8S447.9,83.7,447.9,73.3z M434.3,21.4V7.9
	c0-4.3,3.5-7.9,7.9-7.9h14.6v13.5c0,4.3-3.5,7.9-7.9,7.9H434.3z"/>
<path class="st0" d="M479.9,112.3V33.8H502v8.3h0.3c4.1-8.3,10.6-11,19.7-11v23.6c-14,0.1-18.5,5.4-18.5,14.3v43.3L479.9,112.3
	L479.9,112.3z"/>
<path class="st0" d="M589.2,112.3v-8.5h-0.3c-4.4,7.2-12.3,11-23.5,11c-23.8,0-39.3-18.2-39.3-42s16-41.7,38.9-41.7
	c9,0,16.4,2.7,23,9.3V7.7h23.5v104.6L589.2,112.3L589.2,112.3z M589.4,72.7c0-10.9-8.3-19.7-19.9-19.7s-19.8,8.2-19.8,19.7
	s8.3,20.2,19.7,20.2S589.4,84.3,589.4,72.7z"/>
<path class="st0" d="M642,80.2c1.3,8.9,8.8,14.9,18.4,14.9c6.4,0,10.5-2.4,14.3-7.4h24c-7.5,17.1-21.8,27.1-38.3,27.1
	c-22.6,0-41.6-18.2-41.6-41.6s18.1-42.1,41.2-42.1s41.4,18.5,41.4,42.9c0,2.3-0.1,4.1-0.6,6.2H642L642,80.2z M677.9,64.4
	c-1.8-8.1-8.9-13.4-18-13.4c-8.5,0-15.8,5.1-17.7,13.4H677.9z"/>
<path class="st0" d="M709.5,112.7V34.2h22.1v8.3h0.3c4.1-8.3,10.6-11,19.7-11v23.6c-14,0.1-18.5,5.4-18.5,14.3v43.3L709.5,112.7
	L709.5,112.7z"/>
<path class="st0" d="M353,215c-3.5,7.5-12.3,11.7-21.9,11.7c-22.9,0-39.5-17.7-39.5-41.3s16.8-42.3,39.5-42.3
	c10.2,0,18,3.8,21.8,9.9h0.3v-7.4h23.5v70.1c0,10.6-1.4,18.7-4.2,24c-5.7,10.9-21.1,19.2-40.7,19.2c-22.2,0-36.6-12.6-38.6-27.6
	h27.1c2.7,5.8,7.9,7.8,13.7,7.8c11.9,0,19.1-7.8,19.1-22.1L353,215L353,215z M353.1,185.3c0-11.5-7.8-20.2-19.2-20.2
	c-10.5,0-18.8,8.8-18.8,19.5s7.5,20.2,18.8,20.2S353.1,196.7,353.1,185.3z"/>
<path class="st0" d="M386.3,224.2v-78.5h22.1v8.3h0.3c4.1-8.3,10.6-11,19.7-11v23.6c-14,0.1-18.5,5.4-18.5,14.3v43.3L386.3,224.2
	L386.3,224.2z"/>
<path class="st0" d="M475.2,226.6c-23.9,0-42.3-17.7-42.3-41.7s18.8-41.7,42.3-41.7s42.3,17.7,42.3,41.4S498.8,226.6,475.2,226.6
	L475.2,226.6z M494,184.9c0-10.5-7.9-19.8-19-19.8c-10.3,0-18.7,9-18.7,19.8s8.2,19.8,18.8,19.8S494,195.4,494,184.9z"/>
<path class="st0" d="M576.9,224.2v-8.3h-0.3c-3.4,7.2-9.6,10.9-20.2,10.9c-16.5,0-30.3-9.9-30.3-32.2v-48.8h23.5v44
	c0,10.3,3.7,15.1,12.6,15.1s13.4-5.9,13.4-15.6v-43.6h23.5v78.5L576.9,224.2L576.9,224.2z"/>
<path class="st0" d="M609.4,250.4V145.7h22.1v8.6h0.4c6.2-7.8,14.8-11.3,24.6-11.3c22.3,0,38.2,18.2,38.2,42.7
	c0,22.3-15.7,41.1-38.2,41.1c-9.2,0-17.2-2.8-23.6-9.8v33.2H609.4z M671.2,185.1c0-11-8.5-20.1-19.8-20.1s-19.5,8.8-19.5,20.1
	s8.5,19.9,19.7,19.9S671.2,195.9,671.2,185.1L671.2,185.1z"/>
</svg>
